<svg xmlns="http://www.w3.org/2000/svg" width="168" height="143" fill="none"><g filter="url(#a)"><path fill="url(#b)" d="m43.376 121.532 26.588 9.432s8.584-3.933 14.257-6.036c8.236-3.053 12.946-4.706 21.578-6.414 5.215-1.032 8.192-1.37 13.487-1.886 7.044-.687 18.11-.755 18.11-.755s-13.349-1.851-21.964-2.263c-7.515-.36-19.266-.324-19.266-.324s-10.604.334-17.34 1.078c-6.687.739-10.36 1.7-16.954 3.018-7.26 1.452-18.496 4.15-18.496 4.15Z"/></g><g filter="url(#c)"><path fill="url(#d)" d="M76.323 134.074 91.215 139s4.098-4.961 7.255-7.578c2.635-2.184 4.308-3.179 7.255-4.926 2.463-1.46 3.834-2.339 6.492-3.41 3.15-1.271 8.4-2.274 8.4-2.274l9.547-1.894s-7.469-.094-12.22.379c-2.245.223-3.508.351-5.727.758-4.271.781-6.11 1.17-11.074 2.706-4.894 1.515-7.6 2.694-12.394 4.781l-.207.091c-4.948 2.155-12.219 6.441-12.219 6.441Z"/></g><circle cx="96.814" cy="93.597" r="8.438" fill="#0A1E00"/><circle cx="96.815" cy="93.597" r="5.223" fill="#fff"/><circle cx="96.815" cy="93.597" r="2.813" fill="#0A1E00"/><g filter="url(#e)"><path fill="#0C2300" fill-rule="evenodd" d="M59.166 63.822c-1.586.304-2.571 2.54-1.12 2.54.34 0 .275 2.084-.147 4.63-.47 2.835-1.149 4.628-1.753 4.628-1.01 0-2.586 2.328-2.586 3.823 0 .48 1.302.174 3.062-.722 8.878-4.519 19.36 2.013 19.36 12.063v3.35h5.397c5.253 0 5.41-.056 5.89-2.12.272-1.167 1.026-2.97 1.677-4.008 1.11-1.765 1.071-1.962-.593-3.085-.977-.66-2.856-1.608-4.175-2.107-1.76-.664-1.984-.92-.84-.964.857-.032 2.922.671 4.59 1.563 2.627 1.405 3.423 1.505 5.951.75 1.605-.48 3.84-.642 4.965-.36 1.983.497 2.03.431 1.479-2.1-.313-1.436-.956-2.858-1.43-3.158-.91-.576-5.87-1.744-10.734-2.528l-2.9-.467v-4.44c0-2.44.378-4.816.84-5.277 1.247-1.244-.626-2.151-2.033-.985-.776.642-1.126 2.501-1.126 5.98 0 2.777-.208 4.841-.462 4.588-.254-.253-1.037-2.828-1.74-5.721l-1.277-5.26-3.866-.512c-4.273-.565-13.716-.623-16.43-.102Zm8.93 7.362.231 4.436H59.07l.452-2.893c.914-5.853 1.422-6.478 5.054-6.216l3.288.237.232 4.436Zm11.17.965c1.655 6.62 1.517 11.454-.337 11.805-.77.146-2.908-1.412-5.219-3.805-3.76-3.893-3.914-4.222-3.914-8.405 0-2.394.248-4.6.552-4.902.303-.303 2.129-.448 4.059-.322l3.507.228 1.351 5.4ZM59.358 79.27c-7.14 1.784-10.368 11.547-5.892 17.82 2.136 2.992 7.567 5.123 11.287 4.426 3.547-.664 7.792-4.396 8.937-7.857 2.777-8.395-5.413-16.617-14.332-14.389Zm33.912 1.363c.244.637.144 1.158-.221 1.158-.367 0-.867-.521-1.112-1.158-.245-.636-.145-1.157.22-1.157.367 0 .868.521 1.113 1.157Zm2.32 0c.243.637.107 1.158-.305 1.158s-.749-.521-.749-1.158c0-.636.137-1.157.304-1.157.167 0 .504.521.75 1.157ZM67.42 86.14c3.414 4.33.802 10.31-4.504 10.31-5.72 0-8.576-6.317-4.712-10.42 2.568-2.728 7.02-2.675 9.215.11Zm-7.676 1.053c-.85.848-1.546 2.237-1.546 3.086 0 1.829 2.593 4.628 4.287 4.628.657 0 2.07-.873 3.142-1.942 1.443-1.44 1.804-2.384 1.398-3.66-1.159-3.644-4.713-4.674-7.28-2.112Zm32.053.218c-1.485 1.275-2.162 2.736-2.45 5.29-.35 3.092-.126 3.83 1.815 5.98 3.037 3.362 6.739 3.894 10.308 1.482 6.8-4.596 3.863-14.513-4.297-14.513-2.346 0-3.927.517-5.376 1.761Zm7.429 2.895c2.028 1.194 2.037 4.523.567 5.99-1.475 1.472-4.29 1.076-5.6-.79-1.549-2.206.343-4.456.343-4.456s3.093-1.685 4.69-.745Z" clip-rule="evenodd"/></g><g filter="url(#f)"><circle cx="62.985" cy="90.466" r="11.573" fill="#0C2300"/></g><circle cx="62.984" cy="90.466" r="6.944" fill="#CFD5DA"/><circle cx="62.985" cy="90.466" r="3.858" fill="#0C2300"/><circle cx="96.932" cy="93.552" r="5.401" fill="#D1D1D6"/><circle cx="96.815" cy="93.597" r="2.813" fill="#0C2300"/><g filter="url(#g)"><path fill="url(#h)" fill-rule="evenodd" d="M43.813 42.397c-9.978 2.595-17.658 7-24.8 14.221-6.87 6.946-12.15 16.782-14.112 26.287-.85 4.11-1.242 17.39-.535 18.103.192.195 2.351-.06 4.798-.568l4.447-.922.259-6.552c.333-8.467 1.31-12.333 5.2-20.574 6.334-13.422 19.239-23.308 34.103-26.127 14.233-2.699 29.302 1.68 40.85 11.871 5.154 4.55 5.178 4.55.91-.025-7.719-8.271-15.55-12.97-26.216-15.727-7.421-1.919-17.5-1.914-24.904.013Z" clip-rule="evenodd"/></g><g filter="url(#i)"><path fill="url(#j)" fill-rule="evenodd" d="M51.905 25.432c3.85-1.678 6.371-1.753 10.303-.31 3.714 1.364 7.92 1.972 10.278 1.485 1.869-.386 4.561-2.018 5.43-3.292 1.07-1.57-3.512-4.166-8.224-4.659-3.123-.326-5.993.353-11.288 2.672-2.426 1.062-8.107 4.29-8.458 4.806-.08.118.8-.198 1.959-.702ZM67.16 3.967c.364.085 1.657.756 2.874 1.491 2.835 1.714 4.25 3.443 5.222 6.376 1.046 3.159 2.499 6.252 3.666 7.804 1.488 1.978 4.502 3.673 6.734 3.787 2.001.103 2.036.021 1.584-3.647-.207-1.676-.684-3.087-1.62-4.799-1.244-2.27-1.508-2.558-4.14-4.518-1.547-1.15-3.94-2.652-5.318-3.336-2.719-1.35-8.072-3.306-9.054-3.31-.493 0-.483.028.052.152ZM60.084 36.82c.26.177 5.624.35 7.88.253 4.597-.194 9.055-1.234 11.765-2.743 3.17-1.765 5.82-4.78 6.87-7.815.407-1.177-2.165-1.948-5.165-1.55-3.197.426-6.595 2.76-10.552 7.247-2.273 2.577-4.894 3.853-8.747 4.257-1.223.129-2.146.286-2.05.351ZM83.747 8.296c1.538 1.133 3.754 3.716 4.362 5.083.296.668.855 3.177 1.24 5.576 1.044 6.489 3.078 9.901 6.799 11.406 2.516 1.017 2.578.988 2.959-1.402.732-4.594-.92-9.395-4.48-13.022-2.322-2.366-7.62-6.321-10.028-7.487-1.535-.743-1.689-.77-.852-.154ZM70.3 38.985c.755.507 6.946 1.639 10.458 1.912 4.683.364 8.24-.266 11.191-1.983 2.295-1.334 4.994-3.944 5.497-5.314.218-.592.104-.74-.947-1.233-2.846-1.337-5.073-1.514-7.783-.62-1.869.617-5.669 2.842-7.6 4.45-2.372 1.975-5.728 2.951-9.21 2.68-1.1-.087-1.822-.038-1.606.108Zm26.905-25.281c2.788 2.392 4.568 6.05 4.478 9.202-.023.778.141 2.803.365 4.501.452 3.44 1.787 6.405 3.638 8.082 1.219 1.104 4.107 2.318 4.42 1.858.11-.16.388-1.502.618-2.98.513-3.287-.021-6.612-1.498-9.335-1.566-2.888-5.435-6.94-9.734-10.193-3.708-2.807-4.958-3.427-2.287-1.135ZM80.287 42.599c1.116.825 9.601 3.172 12.762 3.53 5.834.659 10.583-.878 14.191-4.591.792-.816 1.451-1.652 1.464-1.858.034-.558-1.458-1.468-3.399-2.072-3.431-1.067-6.537-.365-11.806 2.669-2.09 1.203-4.266 2.32-4.833 2.48-1.917.544-4.401.59-6.522.12-1.162-.257-1.997-.382-1.857-.278Zm9.66 4.983c.313.194.42.172.27-.056-.135-.208-.368-.352-.516-.32-.148.03-.038.2.246.376Zm20.066-27.127c.475.478 1.417 1.828 2.096 2.999 1.389 2.396 1.699 4.494 1.314 8.895-.338 3.857.144 7.193 1.367 9.467.88 1.637 1.334 2.132 2.993 3.263l1.956 1.332.713-1.405c1.544-3.041 1.669-8.034.287-11.453-1.342-3.318-5.516-8.813-9.371-12.336-1.931-1.764-2.872-2.294-1.355-.762Zm-17.484 28.35c3.413 1.977 10.736 4.422 13.574 4.533 3.845.149 7.254-.885 10.165-3.082 2.273-1.715 2.408-2.032 1.312-3.079-3.149-3.012-8.398-3.102-14.48-.25-1.573.737-3.553 1.497-4.398 1.687-1.6.36-4.302.188-6.527-.414l-1.293-.35 1.647.955Zm10.429 7.461c5.988 3.895 10.004 5.502 13.679 5.475 2.813-.02 6.372-1.203 8.844-2.94l1.214-.852-.894-1.065c-.492-.586-1.709-1.537-2.704-2.113-2.52-1.459-5.329-1.67-9.272-.698-1.686.416-4.082 1.001-5.325 1.302-3.12.754-5.409.352-9.196-1.616-.545-.282 1.1.846 3.654 2.507Zm19.679-25.512c1.605 2.89 1.96 5.586 1.223 9.27-1.645 8.226-.962 12.017 2.691 14.927 1.915 1.526 1.834 1.561 3.147-1.397 1.105-2.488 1.527-5.634 1.148-8.542-.272-2.086-.738-3.38-2.303-6.406-1.664-3.217-6.449-10.117-6.91-9.965-.078.026.374.976 1.004 2.113Zm-14.436 31.168c.601.587 3.332 2.587 6.069 4.445 4.024 2.732 5.338 3.487 6.868 3.95 3.912 1.18 7.435 1.06 10.609-.367 2.877-1.293 3.046-1.524 2.137-2.917-.458-.702-1.521-1.705-2.571-2.426-2.645-1.815-5.711-2.147-10.996-1.19-2.233.404-4.412.714-4.842.688-2.113-.123-4.425-.902-6.289-2.12-1.084-.707-1.994-1.251-2.024-1.208-.029.042.439.558 1.039 1.145Zm24.818-22.176c.769 1.299 1.638 5.173 1.531 6.824-.035.535-.512 2.45-1.061 4.255-2.331 7.67-1.764 12.076 1.944 15.123l.859.706 1.15-1.517c2.281-3.013 3.2-7.089 2.508-11.134-.631-3.688-3.2-9.505-6.017-13.622-1.473-2.153-2.047-2.552-.914-.635Zm-17.361 30.917c2.198 2.615 6.069 6.16 8.672 7.944 3.745 2.565 7.503 3.412 11.582 2.61 2.561-.504 3.789-1.048 3.966-1.756.18-.723-1.921-3.508-3.409-4.517-2.562-1.738-5.969-2.36-10.724-1.956-4.3.365-7.543-.658-10.244-3.23-1.78-1.696-1.715-1.322.157.905Zm6.833 9.636c3.675 4.857 8.618 9.35 11.81 10.733 2.912 1.262 6.156 1.594 9.158.938 1.424-.311 2.705-.738 2.848-.947.395-.58-1.498-3.749-2.943-4.927-2.052-1.675-5.494-2.638-9.43-2.638-5.47-.002-6.618-.308-9.708-2.593-1.441-1.065-2.636-1.913-2.656-1.884-.02.03.395.622.921 1.318Zm19.732-29.514c.624 1.51.998 4.818.751 6.65-.123.92-.821 2.956-1.549 4.526-.729 1.57-1.597 3.711-1.929 4.759-1.35 4.25-.664 8.615 1.71 10.884.874.836.93.839 1.672.102 2.181-2.17 3.871-5.868 4.327-9.472.469-3.711-1.333-10.837-4.202-16.615-1.031-2.076-1.501-2.578-.78-.834Zm-14.028 39.123c.848 1.465 1.989 3.272 2.536 4.016 1.748 2.378 5.55 6.369 7.04 7.388 2.761 1.889 6.835 2.796 10.303 2.293.818-.118 1.65-.107 1.85.026.979.65 3.025 8.999 2.82 11.508-.104 1.274.197 1.582 1.273 1.299 1.52-.398 1.532-1.062.101-5.683-.852-2.755-1.492-5.847-1.542-7.453-.034-1.102.019-1.195 1.05-1.873 1.46-.96 4.16-4.477 5.05-6.576 1.796-4.24 1.677-10.468-.348-18.268-.847-3.263-1.306-3.896-.817-1.127.191 1.083.153 3.022-.087 4.375-.408 2.304-.557 2.626-2.873 6.188-2.699 4.152-3.553 6.024-3.948 8.656-.286 1.905-1.011 2.874-2.065 2.76-.341-.036-1.55-.6-2.686-1.25-2.191-1.258-4.906-2.008-8.978-2.482-1.325-.154-3.072-.57-3.883-.923-1.836-.802-4.735-3.257-5.434-4.603-.29-.557-.612-.996-.716-.974-.104.022.506 1.238 1.354 2.703Zm22.351-26.085c.632 3.462.131 6.067-1.872 9.738-3.138 5.751-3.798 10.232-2.004 13.608 1.359 2.557 1.787 2.728 3.258 1.305.671-.65 1.533-1.642 1.918-2.206 1.044-1.531 2.339-5.325 2.517-7.373.272-3.121-1.306-10.946-3.035-15.052-.221-.526-.562-1.354-.757-1.84-.526-1.314-.531-.95-.025 1.82Z" clip-rule="evenodd"/></g><g filter="url(#k)"><path fill="url(#l)" d="M37.693 119.714 4 107.961s24.416-4.908 40.276-6.445c11.231-1.088 27.11-1.088 27.11-1.088s16.125.273 25.172 1.088c9.883.891 24.398 3.845 24.398 3.845s13.542 2.827 21.687 5.254c8.894 2.65 22.075 8.72 22.075 8.72s-13.361-3.649-22.075-5.308c-9.741-1.855-15.265-2.841-25.172-3.412-7.398-.426-11.57-.255-18.977 0-8.184.282-12.775.61-20.912 1.517-7.14.795-11.137 1.365-18.202 2.653-8.548 1.559-21.687 4.929-21.687 4.929Z"/></g><defs><filter id="a" width="100.192" height="23.851" x="40.29" y="113.285" color-interpolation-filters="sRGB" filterUnits="userSpaceOnUse"><feFlood flood-opacity="0" result="BackgroundImageFix"/><feColorMatrix in="SourceAlpha" result="hardAlpha" values="0 0 0 0 0 0 0 0 0 0 0 0 0 0 0 0 0 0 127 0"/><feOffset dy="3.086"/><feGaussianBlur stdDeviation="1.543"/><feComposite in2="hardAlpha" operator="out"/><feColorMatrix values="0 0 0 0 0 0 0 0 0 0 0 0 0 0 0 0 0 0 0.25 0"/><feBlend in2="BackgroundImageFix" result="effect1_dropShadow_501_10"/><feBlend in="SourceGraphic" in2="effect1_dropShadow_501_10" result="shape"/></filter><filter id="c" width="60.013" height="26.262" x="73.237" y="118.91" color-interpolation-filters="sRGB" filterUnits="userSpaceOnUse"><feFlood flood-opacity="0" result="BackgroundImageFix"/><feColorMatrix in="SourceAlpha" result="hardAlpha" values="0 0 0 0 0 0 0 0 0 0 0 0 0 0 0 0 0 0 127 0"/><feOffset dy="3.086"/><feGaussianBlur stdDeviation="1.543"/><feComposite in2="hardAlpha" operator="out"/><feColorMatrix values="0 0 0 0 0 0 0 0 0 0 0 0 0 0 0 0 0 0 0.25 0"/><feBlend in2="BackgroundImageFix" result="effect1_dropShadow_501_10"/><feBlend in="SourceGraphic" in2="effect1_dropShadow_501_10" result="shape"/></filter><filter id="e" width="60.013" height="44.362" x="48.326" y="63.463" color-interpolation-filters="sRGB" filterUnits="userSpaceOnUse"><feFlood flood-opacity="0" result="BackgroundImageFix"/><feColorMatrix in="SourceAlpha" result="hardAlpha" values="0 0 0 0 0 0 0 0 0 0 0 0 0 0 0 0 0 0 127 0"/><feOffset dy="3.086"/><feGaussianBlur stdDeviation="1.543"/><feComposite in2="hardAlpha" operator="out"/><feColorMatrix values="0 0 0 0 0 0 0 0 0 0 0 0 0 0 0 0 0 0 0.25 0"/><feBlend in2="BackgroundImageFix" result="effect1_dropShadow_501_10"/><feBlend in="SourceGraphic" in2="effect1_dropShadow_501_10" result="shape"/></filter><filter id="f" width="29.318" height="29.318" x="48.326" y="78.893" color-interpolation-filters="sRGB" filterUnits="userSpaceOnUse"><feFlood flood-opacity="0" result="BackgroundImageFix"/><feColorMatrix in="SourceAlpha" result="hardAlpha" values="0 0 0 0 0 0 0 0 0 0 0 0 0 0 0 0 0 0 127 0"/><feOffset dy="3.086"/><feGaussianBlur stdDeviation="1.543"/><feComposite in2="hardAlpha" operator="out"/><feColorMatrix values="0 0 0 0 0 0 0 0 0 0 0 0 0 0 0 0 0 0 0.25 0"/><feBlend in2="BackgroundImageFix" result="effect1_dropShadow_501_10"/><feBlend in="SourceGraphic" in2="effect1_dropShadow_501_10" result="shape"/></filter><filter id="g" width="100.192" height="66.297" x=".914" y="39.405" color-interpolation-filters="sRGB" filterUnits="userSpaceOnUse"><feFlood flood-opacity="0" result="BackgroundImageFix"/><feColorMatrix in="SourceAlpha" result="hardAlpha" values="0 0 0 0 0 0 0 0 0 0 0 0 0 0 0 0 0 0 127 0"/><feOffset dy="1.543"/><feGaussianBlur stdDeviation="1.543"/><feComposite in2="hardAlpha" operator="out"/><feColorMatrix values="0 0 0 0 0 0 0 0 0 0 0 0 0 0 0 0 0 0 0.25 0"/><feBlend in2="BackgroundImageFix" result="effect1_dropShadow_501_10"/><feBlend in="SourceGraphic" in2="effect1_dropShadow_501_10" result="shape"/></filter><filter id="i" width="116.172" height="118.892" x="46.855" y="2.273" color-interpolation-filters="sRGB" filterUnits="userSpaceOnUse"><feFlood flood-opacity="0" result="BackgroundImageFix"/><feColorMatrix in="SourceAlpha" result="hardAlpha" values="0 0 0 0 0 0 0 0 0 0 0 0 0 0 0 0 0 0 127 0"/><feOffset dy="1.543"/><feGaussianBlur stdDeviation="1.543"/><feComposite in2="hardAlpha" operator="out"/><feColorMatrix values="0 0 0 0 0 0 0 0 0 0 0 0 0 0 0 0 0 0 0.25 0"/><feBlend in2="BackgroundImageFix" result="effect1_dropShadow_501_10"/><feBlend in="SourceGraphic" in2="effect1_dropShadow_501_10" result="shape"/></filter><filter id="k" width="166.89" height="25.458" x=".914" y="100.428" color-interpolation-filters="sRGB" filterUnits="userSpaceOnUse"><feFlood flood-opacity="0" result="BackgroundImageFix"/><feColorMatrix in="SourceAlpha" result="hardAlpha" values="0 0 0 0 0 0 0 0 0 0 0 0 0 0 0 0 0 0 127 0"/><feOffset dy="3.086"/><feGaussianBlur stdDeviation="1.543"/><feComposite in2="hardAlpha" operator="out"/><feColorMatrix values="0 0 0 0 0 0 0 0 0 0 0 0 0 0 0 0 0 0 0.25 0"/><feBlend in2="BackgroundImageFix" result="effect1_dropShadow_501_10"/><feBlend in="SourceGraphic" in2="effect1_dropShadow_501_10" result="shape"/></filter><linearGradient id="b" x1="90.386" x2="90.386" y1="113.285" y2="130.964" gradientUnits="userSpaceOnUse"><stop offset=".107" stop-color="#2B642E"/><stop offset=".53" stop-color="#658347"/></linearGradient><linearGradient id="d" x1="103.243" x2="103.243" y1="118.91" y2="139" gradientUnits="userSpaceOnUse"><stop stop-color="#668448"/><stop offset=".792" stop-color="#989E54"/></linearGradient><linearGradient id="h" x1=".532" x2="98.061" y1="94.124" y2="60.653" gradientUnits="userSpaceOnUse"><stop offset=".31" stop-color="#2B5A29"/><stop offset=".864" stop-color="#668448"/></linearGradient><linearGradient id="j" x1="56.229" x2="169.728" y1="16.914" y2="94.269" gradientUnits="userSpaceOnUse"><stop stop-color="#FAE5B0"/><stop offset="1" stop-color="#CBB069"/></linearGradient><linearGradient id="l" x1="84.359" x2="84.359" y1="100.428" y2="119.714" gradientUnits="userSpaceOnUse"><stop offset=".048" stop-color="#133600"/><stop offset=".73" stop-color="#2A642D"/></linearGradient></defs></svg>